<?xml version="1.0" encoding="utf-8"?>
<!-- Generator: Adobe Illustrator 16.0.0, SVG Export Plug-In . SVG Version: 6.00 Build 0)  -->
<!DOCTYPE svg PUBLIC "-//W3C//DTD SVG 1.1//EN" "http://www.w3.org/Graphics/SVG/1.1/DTD/svg11.dtd">
<svg version="1.1" id="Layer_1" xmlns="http://www.w3.org/2000/svg" xmlns:xlink="http://www.w3.org/1999/xlink" x="0px" y="0px"
	 width="320.667px" height="320.667px" viewBox="0 0 320.667 320.667" enable-background="new 0 0 320.667 320.667"
	 xml:space="preserve">
<g>
	<defs>
		<rect id="SVGID_1_" width="320.667" height="320.667"/>
	</defs>
	<clipPath id="SVGID_2_">
		<use xlink:href="#SVGID_1_"  overflow="visible"/>
	</clipPath>
	<path clip-path="url(#SVGID_2_)" fill="#FF396F" d="M203.669,109.291v61.388c0,5.007-4.058,9.074-9.074,9.074H126.66
		c-1.086,0-2.11,0.507-2.768,1.371l-18.234,23.936v-21.827c0-1.922-1.558-3.479-3.48-3.479c-5.011,0-9.074-4.063-9.074-9.074
		v-61.388c0-5.012,4.063-9.074,9.074-9.074h92.417C199.611,100.217,203.669,104.284,203.669,109.291"/>
	<path clip-path="url(#SVGID_2_)" fill="#00051D" d="M105.658,206.416c-0.144,0-0.29-0.022-0.433-0.072
		c-0.551-0.185-0.922-0.701-0.922-1.283v-21.828c0-1.171-0.953-2.123-2.124-2.123c-5.751,0-10.43-4.679-10.43-10.432v-61.387
		c0-5.752,4.679-10.43,10.43-10.43h92.416c5.751,0,10.43,4.678,10.43,10.43v61.387c0,5.753-4.679,10.432-10.43,10.432h-67.934
		c-0.659,0-1.29,0.313-1.69,0.837l-18.234,23.936C106.476,206.226,106.074,206.416,105.658,206.416 M102.179,101.572
		c-4.256,0-7.719,3.463-7.719,7.719v61.387c0,4.258,3.463,7.72,7.719,7.72c2.666,0,4.836,2.169,4.836,4.835v17.811l15.799-20.741
		c0.91-1.192,2.348-1.904,3.847-1.904h67.934c4.256,0,7.719-3.462,7.719-7.72v-61.387c0-4.256-3.463-7.719-7.719-7.719H102.179z"/>
	<path clip-path="url(#SVGID_2_)" fill="#FFB3CB" d="M240.328,133.242v61.388c0,2.503-1.021,4.772-2.656,6.417
		c-1.646,1.646-3.914,2.657-6.418,2.657c-1.926,0-3.479,1.555-3.479,3.48v21.826l-18.23-23.933
		c-0.659-0.868-1.689-1.374-2.774-1.374h-67.932c-5.016,0-9.074-4.067-9.074-9.074v-14.877h64.832c5.017,0,9.074-4.066,9.074-9.075
		v-46.51h27.585C236.262,124.168,240.328,128.235,240.328,133.242"/>
	<path clip-path="url(#SVGID_2_)" fill="#00051D" d="M227.775,230.367c-0.416,0-0.818-0.19-1.08-0.533l-18.23-23.935
		c-0.398-0.525-1.033-0.84-1.696-0.84h-67.931c-5.752,0-10.43-4.679-10.43-10.43v-14.877c0-0.748,0.606-1.355,1.355-1.355h64.832
		c4.256,0,7.719-3.463,7.719-7.719v-46.511c0-0.749,0.606-1.356,1.355-1.356h27.585c5.751,0,10.43,4.679,10.43,10.43v61.388
		c0,2.777-1.084,5.395-3.052,7.373c-1.971,1.973-4.591,3.057-7.378,3.057c-1.171,0-2.124,0.953-2.124,2.124v21.828
		c0,0.581-0.371,1.1-0.923,1.284C228.065,230.345,227.919,230.367,227.775,230.367 M131.119,181.108v13.521
		c0,4.256,3.463,7.719,7.719,7.719h67.931c1.506,0,2.945,0.713,3.854,1.908l15.795,20.738v-17.812c0-2.666,2.169-4.835,4.836-4.835
		c2.063,0,4.001-0.802,5.458-2.261c1.457-1.464,2.261-3.403,2.261-5.458v-61.388c0-4.256-3.463-7.718-7.719-7.718h-26.229v45.155
		c0,5.751-4.68,10.43-10.431,10.43H131.119z"/>
	<path clip-path="url(#SVGID_2_)" fill="#FFFFFF" d="M154.263,139.224c0,2.746-2.226,4.972-4.972,4.972
		c-2.746,0-4.972-2.226-4.972-4.972s2.226-4.972,4.972-4.972C152.037,134.252,154.263,136.478,154.263,139.224"/>
	<path clip-path="url(#SVGID_2_)" fill="#00051D" d="M149.291,145.553c-3.489,0-6.328-2.839-6.328-6.329
		c0-3.489,2.839-6.327,6.328-6.327c3.49,0,6.328,2.838,6.328,6.327C155.618,142.714,152.78,145.553,149.291,145.553
		 M149.291,135.608c-1.994,0-3.616,1.622-3.616,3.616c0,1.995,1.622,3.617,3.616,3.617c1.994,0,3.617-1.622,3.617-3.617
		C152.907,137.23,151.284,135.608,149.291,135.608"/>
	<path clip-path="url(#SVGID_2_)" fill="#FFFFFF" d="M127.148,139.224c0,2.746-2.226,4.972-4.972,4.972s-4.972-2.226-4.972-4.972
		s2.226-4.972,4.972-4.972S127.148,136.478,127.148,139.224"/>
	<path clip-path="url(#SVGID_2_)" fill="#00051D" d="M122.176,145.553c-3.489,0-6.328-2.839-6.328-6.329
		c0-3.489,2.839-6.327,6.328-6.327c3.49,0,6.328,2.838,6.328,6.327C128.503,142.714,125.666,145.553,122.176,145.553
		 M122.176,135.608c-1.994,0-3.616,1.622-3.616,3.616c0,1.995,1.622,3.617,3.616,3.617c1.994,0,3.617-1.622,3.617-3.617
		C125.792,137.23,124.169,135.608,122.176,135.608"/>
	<path clip-path="url(#SVGID_2_)" fill="#FFFFFF" d="M181.378,139.224c0,2.746-2.227,4.972-4.973,4.972s-4.972-2.226-4.972-4.972
		s2.226-4.972,4.972-4.972S181.378,136.478,181.378,139.224"/>
	<path clip-path="url(#SVGID_2_)" fill="#00051D" d="M176.405,145.553c-3.489,0-6.328-2.839-6.328-6.329
		c0-3.489,2.839-6.327,6.328-6.327c3.49,0,6.328,2.838,6.328,6.327C182.733,142.714,179.896,145.553,176.405,145.553
		 M176.405,135.608c-1.994,0-3.616,1.622-3.616,3.616c0,1.995,1.622,3.617,3.616,3.617s3.617-1.622,3.617-3.617
		C180.022,137.23,178.399,135.608,176.405,135.608"/>
	<path clip-path="url(#SVGID_2_)" fill="#FF396F" d="M257.268,90.294c0,11.62-9.42,21.039-21.039,21.039
		c-11.62,0-21.039-9.419-21.039-21.039s9.419-21.039,21.039-21.039C247.848,69.255,257.268,78.674,257.268,90.294"/>
	<path clip-path="url(#SVGID_2_)" fill="#00051D" d="M236.228,112.689c-12.349,0-22.395-10.046-22.395-22.395
		c0-12.348,10.046-22.394,22.395-22.394c12.35,0,22.396,10.046,22.396,22.394C258.623,102.643,248.577,112.689,236.228,112.689
		 M236.228,70.611c-10.853,0-19.683,8.83-19.683,19.683c0,10.854,8.83,19.684,19.683,19.684c10.854,0,19.684-8.83,19.684-19.684
		C255.911,79.441,247.081,70.611,236.228,70.611"/>
	<path clip-path="url(#SVGID_2_)" fill="#FCFCFC" d="M241.818,81.039c-2.97-0.031-5.407,2.28-5.581,5.2
		c-0.001,0.016-0.019,0.016-0.019,0c-0.173-2.92-2.611-5.231-5.581-5.2c-3.287,0.034-5.447,3.02-5.447,6.308
		c0,10.07,11.037,14.294,11.037,14.294s11.037-4.8,11.037-14.295C247.265,84.059,245.105,81.072,241.818,81.039"/>
	<path clip-path="url(#SVGID_2_)" fill="#00051D" d="M236.228,102.996c-0.163,0-0.327-0.03-0.484-0.089
		c-0.486-0.187-11.908-4.684-11.908-15.561c0-4.257,2.982-7.624,6.788-7.663h0.073c2.259,0,4.273,1.085,5.532,2.778
		c1.259-1.694,3.273-2.778,5.53-2.778h0.074c3.806,0.038,6.788,3.405,6.788,7.663c0,10.265-11.368,15.327-11.853,15.538
		C236.596,102.958,236.412,102.996,236.228,102.996 M230.696,82.394h-0.045c-2.666,0.028-4.104,2.572-4.104,4.952
		c0,7.838,7.579,11.854,9.649,12.804c2.069-1.052,9.713-5.438,9.713-12.804c0-2.381-1.438-4.925-4.104-4.952h-0.001
		c-2.248,0.005-4.081,1.7-4.213,3.924c-0.043,0.716-0.645,1.288-1.363,1.288c-0.721,0-1.325-0.576-1.363-1.297
		C234.734,84.109,232.907,82.394,230.696,82.394"/>
	<path clip-path="url(#SVGID_2_)" fill="#FF396F" d="M105.478,230.373c0,11.62-9.42,21.039-21.039,21.039
		c-11.62,0-21.039-9.419-21.039-21.039s9.419-21.039,21.039-21.039C96.058,209.334,105.478,218.753,105.478,230.373"/>
	<path clip-path="url(#SVGID_2_)" fill="#00051D" d="M84.438,252.768c-12.349,0-22.395-10.046-22.395-22.395
		c0-12.35,10.046-22.396,22.395-22.396c12.349,0,22.395,10.046,22.395,22.396C106.833,242.722,96.788,252.768,84.438,252.768
		 M84.438,210.688c-10.853,0-19.683,8.83-19.683,19.685c0,10.854,8.83,19.684,19.683,19.684c10.853,0,19.683-8.83,19.683-19.684
		C104.122,219.519,95.292,210.688,84.438,210.688"/>
	<path clip-path="url(#SVGID_2_)" fill="#FFFFFF" d="M88.647,229.107h-2.843c-0.605,0-1.015-0.615-0.783-1.174l1.675-4.03
		c0.498-1.198,2.263-4.889,0.093-6.343c-1.198-0.498-2.573,0.07-3.071,1.268c-1.211,2.912-3.317,5.339-5.961,7.059
		c-2.515,1.636-4.178,4.471-4.178,7.694v0.611c0,5.066,4.107,9.173,9.173,9.173h1.601h4.94L88.647,229.107z"/>
	<path clip-path="url(#SVGID_2_)" fill="#00051D" d="M89.293,244.269h-6.541c-5.556,0-10.077-4.52-10.077-10.075v-0.611
		c0-3.424,1.716-6.584,4.59-8.453c2.559-1.665,4.502-3.963,5.618-6.646c0.334-0.804,0.96-1.429,1.763-1.76
		c0.803-0.332,1.688-0.33,2.49,0.004c0.055,0.022,0.107,0.051,0.156,0.083c2.655,1.778,0.977,5.71,0.345,7.191l-1.75,4.203h2.76
		c0.499,0,0.904,0.404,0.904,0.904c0,0.499-0.405,0.903-0.904,0.903h-2.843c-0.586,0-1.131-0.292-1.457-0.779
		c-0.326-0.489-0.386-1.104-0.161-1.646l1.788-4.295c0.463-1.085,1.679-3.933,0.384-4.928c-0.333-0.113-0.693-0.105-1.022,0.029
		c-0.357,0.148-0.635,0.427-0.784,0.782c-1.256,3.023-3.435,5.605-6.302,7.469c-2.359,1.534-3.767,4.13-3.767,6.938v0.611
		c0,4.559,3.709,8.268,8.269,8.268h6.541c0.499,0,0.904,0.405,0.904,0.904C90.197,243.865,89.792,244.269,89.293,244.269"/>
	<path clip-path="url(#SVGID_2_)" fill="#FFFFFF" d="M89.83,243.365h-1.215c-0.984,0-1.782-0.798-1.782-1.782
		s0.798-1.781,1.782-1.781h3.119c0.984,0,1.782,0.797,1.782,1.781s-0.798,1.782-1.782,1.782H89.83z"/>
	<path clip-path="url(#SVGID_2_)" fill="#00051D" d="M91.734,244.269h-3.119c-1.481,0-2.686-1.205-2.686-2.686
		c0-1.481,1.205-2.687,2.686-2.687h3.119c1.481,0,2.686,1.205,2.686,2.687C94.42,243.063,93.215,244.269,91.734,244.269
		 M88.615,240.705c-0.485,0-0.879,0.394-0.879,0.878c0,0.485,0.394,0.878,0.879,0.878h3.119c0.484,0,0.878-0.393,0.878-0.878
		c0-0.484-0.394-0.878-0.878-0.878H88.615z"/>
	<path clip-path="url(#SVGID_2_)" fill="#FFFFFF" d="M94.65,238.019L94.65,238.019c0,0.984-0.798,1.782-1.782,1.782h-4.456
		c-0.984,0-1.782-0.798-1.782-1.782s0.798-1.782,1.782-1.782h4.456C93.853,236.236,94.65,237.034,94.65,238.019"/>
	<path clip-path="url(#SVGID_2_)" fill="#00051D" d="M92.869,240.705h-4.456c-1.481,0-2.686-1.205-2.686-2.687
		c0-1.48,1.205-2.687,2.686-2.687h4.456c1.481,0,2.685,1.206,2.685,2.687C95.554,239.5,94.35,240.705,92.869,240.705 M88.413,237.14
		c-0.485,0-0.879,0.396-0.879,0.879c0,0.485,0.394,0.878,0.879,0.878h4.456c0.484,0,0.878-0.393,0.878-0.878
		c0-0.483-0.394-0.879-0.878-0.879H88.413z"/>
	<path clip-path="url(#SVGID_2_)" fill="#FFFFFF" d="M94.65,230.89L94.65,230.89c0,0.984-0.798,1.782-1.782,1.782h-4.456
		c-0.984,0-1.782-0.798-1.782-1.782s0.798-1.782,1.782-1.782h4.456C93.853,229.107,94.65,229.905,94.65,230.89"/>
	<path clip-path="url(#SVGID_2_)" fill="#00051D" d="M92.869,233.576h-4.456c-1.481,0-2.686-1.205-2.686-2.687
		c0-1.48,1.205-2.686,2.686-2.686h4.456c1.481,0,2.685,1.205,2.685,2.686C95.554,232.371,94.35,233.576,92.869,233.576
		 M88.413,230.012c-0.485,0-0.879,0.394-0.879,0.878c0,0.485,0.394,0.878,0.879,0.878h4.456c0.484,0,0.878-0.393,0.878-0.878
		c0-0.484-0.394-0.878-0.878-0.878H88.413z"/>
	<path clip-path="url(#SVGID_2_)" fill="#FFFFFF" d="M95.299,234.454L95.299,234.454c0,0.984-0.798,1.782-1.782,1.782h-5.104
		c-0.984,0-1.782-0.798-1.782-1.782s0.798-1.782,1.782-1.782h5.104C94.5,232.672,95.299,233.47,95.299,234.454"/>
	<path clip-path="url(#SVGID_2_)" fill="#00051D" d="M93.516,237.14h-5.103c-1.481,0-2.686-1.205-2.686-2.686
		c0-1.481,1.205-2.687,2.686-2.687h5.103c1.482,0,2.687,1.205,2.687,2.687C96.203,235.935,94.998,237.14,93.516,237.14
		 M88.413,233.576c-0.485,0-0.879,0.394-0.879,0.878s0.394,0.878,0.879,0.878h5.103c0.485,0,0.879-0.394,0.879-0.878
		s-0.394-0.878-0.879-0.878H88.413z"/>
</g>
</svg>
